<svg xmlns="http://www.w3.org/2000/svg" xmlns:xlink="http://www.w3.org/1999/xlink" viewBox="0 0 50 50" version="1.1" width="80" height="80">
<g id="surface1">
<path style=" stroke:none;fill-rule:nonzero;fill-opacity:1;" d="M 11.25 5.367188 L 5.367188 11.25 L 19.117188 25 L 5.367188 38.75 L 11.25 44.632813 L 25 30.882813 L 38.75 44.632813 L 44.632813 38.75 L 30.882813 25 L 44.632813 11.25 L 38.75 5.367188 L 25 19.117188 Z M 11.25 7.132813 L 25 20.882813 L 38.75 7.132813 L 42.867188 11.25 L 29.117188 25 L 42.867188 38.75 L 38.75 42.867188 L 25 29.117188 L 11.25 42.867188 L 7.132813 38.75 L 20.882813 25 L 7.132813 11.25 Z M 11.875 9.375 C 11.53125 9.375 11.25 9.65625 11.25 10 C 11.25 10.34375 11.53125 10.625 11.875 10.625 C 12.21875 10.625 12.5 10.34375 12.5 10 C 12.5 9.65625 12.21875 9.375 11.875 9.375 Z M 38.125 9.375 C 37.78125 9.375 37.5 9.65625 37.5 10 C 37.5 10.34375 37.78125 10.625 38.125 10.625 C 38.46875 10.625 38.75 10.34375 38.75 10 C 38.75 9.65625 38.46875 9.375 38.125 9.375 Z M 13.75 11.25 C 13.40625 11.25 13.125 11.53125 13.125 11.875 C 13.125 12.21875 13.40625 12.5 13.75 12.5 C 14.09375 12.5 14.375 12.21875 14.375 11.875 C 14.375 11.53125 14.09375 11.25 13.75 11.25 Z M 36.25 11.25 C 35.90625 11.25 35.625 11.53125 35.625 11.875 C 35.625 12.21875 35.90625 12.5 36.25 12.5 C 36.59375 12.5 36.875 12.21875 36.875 11.875 C 36.875 11.53125 36.59375 11.25 36.25 11.25 Z M 15.625 13.125 C 15.28125 13.125 15 13.40625 15 13.75 C 15 14.09375 15.28125 14.375 15.625 14.375 C 15.96875 14.375 16.25 14.09375 16.25 13.75 C 16.25 13.40625 15.96875 13.125 15.625 13.125 Z M 34.375 13.125 C 34.03125 13.125 33.75 13.40625 33.75 13.75 C 33.75 14.09375 34.03125 14.375 34.375 14.375 C 34.71875 14.375 35 14.09375 35 13.75 C 35 13.40625 34.71875 13.125 34.375 13.125 Z M 17.5 15 C 17.15625 15 16.875 15.28125 16.875 15.625 C 16.875 15.96875 17.15625 16.25 17.5 16.25 C 17.84375 16.25 18.125 15.96875 18.125 15.625 C 18.125 15.28125 17.84375 15 17.5 15 Z M 32.5 15 C 32.15625 15 31.875 15.28125 31.875 15.625 C 31.875 15.96875 32.15625 16.25 32.5 16.25 C 32.84375 16.25 33.125 15.96875 33.125 15.625 C 33.125 15.28125 32.84375 15 32.5 15 Z M 19.375 16.875 C 19.03125 16.875 18.75 17.15625 18.75 17.5 C 18.75 17.84375 19.03125 18.125 19.375 18.125 C 19.71875 18.125 20 17.84375 20 17.5 C 20 17.15625 19.71875 16.875 19.375 16.875 Z M 30.625 16.875 C 30.28125 16.875 30 17.15625 30 17.5 C 30 17.84375 30.28125 18.125 30.625 18.125 C 30.96875 18.125 31.25 17.84375 31.25 17.5 C 31.25 17.15625 30.96875 16.875 30.625 16.875 Z M 21.25 18.75 C 20.90625 18.75 20.625 19.03125 20.625 19.375 C 20.625 19.71875 20.90625 20 21.25 20 C 21.59375 20 21.875 19.71875 21.875 19.375 C 21.875 19.03125 21.59375 18.75 21.25 18.75 Z M 28.75 18.75 C 28.40625 18.75 28.125 19.03125 28.125 19.375 C 28.125 19.71875 28.40625 20 28.75 20 C 29.09375 20 29.375 19.71875 29.375 19.375 C 29.375 19.03125 29.09375 18.75 28.75 18.75 Z M 23.125 20.625 C 22.78125 20.625 22.5 20.90625 22.5 21.25 C 22.5 21.59375 22.78125 21.875 23.125 21.875 C 23.46875 21.875 23.75 21.59375 23.75 21.25 C 23.75 20.90625 23.46875 20.625 23.125 20.625 Z M 26.875 20.625 C 26.53125 20.625 26.25 20.90625 26.25 21.25 C 26.25 21.59375 26.53125 21.875 26.875 21.875 C 27.21875 21.875 27.5 21.59375 27.5 21.25 C 27.5 20.90625 27.21875 20.625 26.875 20.625 Z M 25 22.5 C 24.65625 22.5 24.375 22.78125 24.375 23.125 C 24.375 23.46875 24.65625 23.75 25 23.75 C 25.34375 23.75 25.625 23.46875 25.625 23.125 C 25.625 22.78125 25.34375 22.5 25 22.5 Z M 20.625 26.875 C 20.28125 26.875 20 27.15625 20 27.5 C 20 27.84375 20.28125 28.125 20.625 28.125 C 20.96875 28.125 21.25 27.84375 21.25 27.5 C 21.25 27.15625 20.96875 26.875 20.625 26.875 Z M 29.375 26.875 C 29.03125 26.875 28.75 27.15625 28.75 27.5 C 28.75 27.84375 29.03125 28.125 29.375 28.125 C 29.71875 28.125 30 27.84375 30 27.5 C 30 27.15625 29.71875 26.875 29.375 26.875 Z M 18.75 28.75 C 18.40625 28.75 18.125 29.03125 18.125 29.375 C 18.125 29.71875 18.40625 30 18.75 30 C 19.09375 30 19.375 29.71875 19.375 29.375 C 19.375 29.03125 19.09375 28.75 18.75 28.75 Z M 31.25 28.75 C 30.90625 28.75 30.625 29.03125 30.625 29.375 C 30.625 29.71875 30.90625 30 31.25 30 C 31.59375 30 31.875 29.71875 31.875 29.375 C 31.875 29.03125 31.59375 28.75 31.25 28.75 Z M 16.875 30.625 C 16.53125 30.625 16.25 30.90625 16.25 31.25 C 16.25 31.59375 16.53125 31.875 16.875 31.875 C 17.21875 31.875 17.5 31.59375 17.5 31.25 C 17.5 30.90625 17.21875 30.625 16.875 30.625 Z M 33.125 30.625 C 32.78125 30.625 32.5 30.90625 32.5 31.25 C 32.5 31.59375 32.78125 31.875 33.125 31.875 C 33.46875 31.875 33.75 31.59375 33.75 31.25 C 33.75 30.90625 33.46875 30.625 33.125 30.625 Z M 15 32.5 C 14.65625 32.5 14.375 32.78125 14.375 33.125 C 14.375 33.46875 14.65625 33.75 15 33.75 C 15.34375 33.75 15.625 33.46875 15.625 33.125 C 15.625 32.78125 15.34375 32.5 15 32.5 Z M 35 32.5 C 34.65625 32.5 34.375 32.78125 34.375 33.125 C 34.375 33.46875 34.65625 33.75 35 33.75 C 35.34375 33.75 35.625 33.46875 35.625 33.125 C 35.625 32.78125 35.34375 32.5 35 32.5 Z M 13.125 34.375 C 12.78125 34.375 12.5 34.65625 12.5 35 C 12.5 35.34375 12.78125 35.625 13.125 35.625 C 13.46875 35.625 13.75 35.34375 13.75 35 C 13.75 34.65625 13.46875 34.375 13.125 34.375 Z M 36.875 34.375 C 36.53125 34.375 36.25 34.65625 36.25 35 C 36.25 35.34375 36.53125 35.625 36.875 35.625 C 37.21875 35.625 37.5 35.34375 37.5 35 C 37.5 34.65625 37.21875 34.375 36.875 34.375 Z M 11.25 36.25 C 10.90625 36.25 10.625 36.53125 10.625 36.875 C 10.625 37.21875 10.90625 37.5 11.25 37.5 C 11.59375 37.5 11.875 37.21875 11.875 36.875 C 11.875 36.53125 11.59375 36.25 11.25 36.25 Z M 38.75 36.25 C 38.40625 36.25 38.125 36.53125 38.125 36.875 C 38.125 37.21875 38.40625 37.5 38.75 37.5 C 39.09375 37.5 39.375 37.21875 39.375 36.875 C 39.375 36.53125 39.09375 36.25 38.75 36.25 Z M 9.375 38.125 C 9.03125 38.125 8.75 38.40625 8.75 38.75 C 8.75 39.09375 9.03125 39.375 9.375 39.375 C 9.71875 39.375 10 39.09375 10 38.75 C 10 38.40625 9.71875 38.125 9.375 38.125 Z M 40.625 38.125 C 40.28125 38.125 40 38.40625 40 38.75 C 40 39.09375 40.28125 39.375 40.625 39.375 C 40.96875 39.375 41.25 39.09375 41.25 38.75 C 41.25 38.40625 40.96875 38.125 40.625 38.125 Z "/>
</g>
</svg>